<svg width="64" height="64" viewBox="0 0 64 64" fill="none" xmlns="http://www.w3.org/2000/svg">
<path fill-rule="evenodd" clip-rule="evenodd" d="M25.8404 1.125C32.2149 1.125 37.3825 6.29262 37.3825 12.6671C37.3825 19.0416 32.2149 24.2092 25.8404 24.2092C19.4659 24.2092 14.2982 19.0417 14.2982 12.6671C14.2982 6.29262 19.4659 1.125 25.8404 1.125ZM43.0692 32.8156L44.7499 36.8134L49.0714 37.1764C49.2026 37.1874 49.2557 37.3507 49.1561 37.4369L45.8732 40.2706L46.8635 44.4927C46.8935 44.621 46.7545 44.722 46.6419 44.6538L42.9324 42.4072L39.2229 44.6538C39.1102 44.722 38.9712 44.621 39.0012 44.4927L39.9915 40.2706L36.7086 37.4369C36.6089 37.3507 36.662 37.1874 36.7932 37.1764L41.1147 36.8134L42.7954 32.8156C42.8461 32.6949 43.0186 32.6949 43.0692 32.8156ZM57.3336 37.9181C58.7179 35.9341 57.6706 32.7108 55.3846 31.9193C54.4229 31.5863 53.8014 30.7311 53.782 29.7135C53.7357 27.2947 50.9939 25.3026 48.6791 26.006C47.7054 26.3019 46.7 25.9754 46.0861 25.1636C44.6271 23.234 41.2377 23.2339 39.7786 25.1635C39.1647 25.9753 38.1594 26.3021 37.1856 26.0061C34.871 25.3026 32.129 27.2947 32.0826 29.7135C32.0631 30.7311 31.4419 31.5864 30.4801 31.9193C28.194 32.7106 27.1466 35.934 28.5309 37.918C29.1132 38.7528 29.1134 39.8097 28.5309 40.6445C27.1466 42.6285 28.1939 45.8519 30.4799 46.6434C31.4416 46.9764 32.0631 47.8315 32.0825 48.8491C32.1287 51.2679 34.8706 53.26 37.1852 52.5566C38.159 52.2606 39.1644 52.5872 39.7782 53.399C41.2374 55.3286 44.6267 55.3287 46.0857 53.399C46.6996 52.5871 47.705 52.2605 48.6787 52.5565C50.9934 53.26 53.7354 51.2677 53.7816 48.8491C53.8011 47.8315 54.4224 46.9764 55.3842 46.6434C57.6704 45.852 58.7176 42.6287 57.3334 40.6447C56.7512 39.8099 56.7512 38.7528 57.3336 37.9181ZM42.9324 48.7714C37.6912 48.7714 33.4424 44.5226 33.4424 39.2814C33.4424 34.0403 37.6912 29.7914 42.9324 29.7914C48.1736 29.7914 52.4224 34.0401 52.4224 39.2814C52.4224 44.5225 48.1735 48.7714 42.9324 48.7714ZM55.468 50.5891L59.4426 57.4733C59.6122 57.7669 59.3615 58.1237 59.0277 58.064L53.17 57.0135L51.1509 62.6116C51.0357 62.9306 50.6014 62.9692 50.4319 62.6756L46.4515 55.7815C46.9135 55.4616 47.3304 55.0696 47.6814 54.6054C47.7891 54.4629 47.9265 54.4181 48.0975 54.4701C51.1142 55.3869 54.4469 53.4568 55.468 50.5891ZM39.4131 55.7814L35.4327 62.6756C35.2632 62.9694 34.8287 62.9306 34.7137 62.6118L32.6946 57.0136L26.837 58.0641C26.5032 58.1239 26.2525 57.7671 26.4221 57.4734L30.3966 50.5892C31.4177 53.4569 34.7502 55.3869 37.767 54.4702C37.938 54.4183 38.0755 54.4627 38.1832 54.6054C38.5342 55.0695 38.9511 55.4614 39.4131 55.7814ZM27.38 46.8149H5.37862C4.87787 46.8149 4.48274 46.403 4.50399 45.9026C4.98612 34.5758 14.4002 25.4591 25.8404 25.4591C27.7646 25.4591 29.631 25.7183 31.4077 26.2013C30.6114 27.171 30.108 28.3736 30.083 29.6751C30.0796 29.8542 29.9952 29.9706 29.8259 30.0292C26.2869 31.2544 24.7477 35.9909 26.8906 39.0622C26.9931 39.2092 26.9934 39.3529 26.8907 39.4999C25.3419 41.72 25.7169 44.8098 27.38 46.8149Z" fill="#FF7300"/>
</svg>
