<svg width="64" height="64" viewBox="0 0 64 64" fill="none" xmlns="http://www.w3.org/2000/svg">
<path d="M36.1988 39.1273C36.3249 39.1855 36.4606 39.2146 36.5964 39.2146C36.7321 39.2146 36.8679 39.1855 36.994 39.1273C37.8667 38.7297 58.2594 29.3528 58.2594 15.6897C58.2594 8.99884 52.8194 3.55884 46.1285 3.55884C42.3564 3.55884 38.8849 5.2752 36.5964 8.20369C34.3079 5.2752 30.8364 3.55884 27.0643 3.55884C20.3733 3.55884 14.9333 8.99884 14.9333 15.6897C14.9333 29.3528 35.3261 38.7394 36.1988 39.1273ZM21.314 25.9782C28.3734 25.154 31.4376 22.2837 32.737 20.3152C33.503 22.1188 34.9188 23.2922 36.4412 23.2922C36.6061 23.2922 36.7709 23.2825 36.9358 23.2534C38.0121 23.0691 38.943 22.2934 39.4764 21.1104C39.9612 20.0437 40.1067 18.7249 39.8837 17.4061C39.6897 16.2813 39.263 15.2534 38.6327 14.4291C38.303 14.0025 37.6824 13.9152 37.2461 14.2449C36.8097 14.5746 36.7321 15.1952 37.0618 15.6316C37.4885 16.1843 37.7988 16.931 37.9249 17.7261C38.08 18.657 37.983 19.5879 37.6727 20.2958C37.5176 20.6352 37.1782 21.2073 36.6061 21.3043C35.7237 21.44 34.5115 20.2764 34.1915 18.3467C34.0752 17.6679 34.0946 16.9988 34.24 16.4073C34.2497 16.3588 34.24 16.3104 34.2497 16.2522C35.4327 13.0813 37.0812 12.6546 37.0812 12.6546C41.5515 10.6473 45.8376 15.0497 45.8376 15.0497H50.3079V16.1552C50.3079 19.2 47.8449 21.6631 44.8 21.6631C37.9249 23.0885 36.6933 30.3516 36.6933 30.3516C36.5964 32.611 35.8109 34.6473 34.8994 36.2861C31.6994 34.5891 25.5321 30.9043 21.314 25.9782Z" fill="#FF7300"/>
<path d="M61.3334 41.765C60.1504 40.068 57.8813 39.5443 56.0776 40.5528L42.8025 47.9807C42.0849 49.765 40.3492 51.0353 38.3128 51.0353H30.1285C29.5952 51.0353 29.1588 50.5989 29.1588 50.0656C29.1588 49.5322 29.5952 49.0959 30.1285 49.0959H38.3128C39.9128 49.0959 41.2219 47.7868 41.2219 46.1868C41.2219 44.5868 39.9128 43.2777 38.3128 43.2777H31.1661C29.4788 43.2777 27.7528 42.7443 26.1916 41.7456C24.6304 40.7468 22.3419 40.1747 19.9079 40.1747C16.9407 40.1747 14.2061 41.028 12.7807 42.405C11.2195 43.908 9.06673 44.7419 6.72976 44.7419H1.93945V60.4219C12.451 57.0765 25.2995 59.9759 25.2995 59.9759C25.6873 60.034 26.0752 60.0825 26.4534 60.131C33.0764 60.9359 39.7673 59.4231 45.5176 56.0486L60.0728 47.5153C62.0995 46.3419 62.6813 43.6947 61.3334 41.765Z" fill="#FF7300"/>
<path d="M42.5115 16.9504C43.0448 16.9504 43.4715 16.5237 43.4715 15.9904C43.4715 15.4571 43.0448 15.0304 42.5115 15.0304C41.9782 15.0304 41.5515 15.4571 41.5515 15.9904C41.5515 16.5237 41.9782 16.9504 42.5115 16.9504Z" fill="#FF7300"/>
</svg>
