<svg width="64" height="64" viewBox="0 0 64 64" fill="none" xmlns="http://www.w3.org/2000/svg">
<path d="M32.0001 2.04602L1.93945 26.3272V35.2387L32.0001 10.9575L62.0607 35.2387V26.3272L32.0001 2.04602Z" fill="#FF7300"/>
<path d="M28.9941 42.463C28.9941 42.463 27.7529 42.783 26.8608 45.1879C26.8608 45.2364 26.8705 45.2849 26.8608 45.3333C26.7541 45.76 26.7444 46.2255 26.8317 46.7103C27.045 47.9903 27.8402 48.834 28.3832 48.7467C28.9359 48.6497 29.4014 47.5927 29.1881 46.3127C29.0911 45.7503 28.8778 45.2267 28.5771 44.8388C28.2571 44.4121 28.3347 43.8012 28.7614 43.4715C29.1784 43.1515 29.7893 43.2291 30.119 43.6558C30.6135 44.2958 30.9529 45.1103 31.0984 45.9927C31.4862 48.32 30.439 50.3661 28.7032 50.657C28.5674 50.6764 28.4317 50.6958 28.2959 50.6958C27.1517 50.6958 26.085 49.8812 25.445 48.6303C24.9893 49.2218 24.3299 49.8812 23.3699 50.4921V61.954H26.2499C27.2778 60.5867 28.5868 58.3855 28.7032 55.7867C28.7032 55.7867 29.6244 50.3176 34.8026 49.2412C35.9468 49.2412 36.9844 48.7758 37.7311 48.0291C38.4874 47.2824 38.9529 46.2449 38.9529 45.1006V44.2667L35.5784 44.2764C35.5784 44.2764 32.359 40.9503 28.9941 42.463ZM33.0862 45.6921C32.6887 45.6921 32.359 45.3721 32.359 44.9649C32.359 44.5673 32.6887 44.2473 33.0862 44.2473C33.4838 44.2473 33.8135 44.5673 33.8135 44.9649C33.8135 45.3721 33.4838 45.6921 33.0862 45.6921Z" fill="#FF7300"/>
<path d="M8.10669 57.3381H21.4303V61.9442H8.10669V57.3381Z" fill="#FF7300"/>
<path d="M42.5698 57.3381H55.8935V61.9442H42.5698V57.3381Z" fill="#FF7300"/>
<path d="M8.10669 32.7467V55.4861H21.4303V48.1746C21.4303 42.337 26.1624 37.6049 32 37.6049C37.8376 37.6049 42.5697 42.337 42.5697 48.1746V55.4861H55.8934V32.7467L32 13.4497L8.10669 32.7467ZM44.6449 26.88C46.2352 26.88 47.5152 28.1697 47.5152 29.7503C47.5152 30.7976 46.9528 31.7091 46.1091 32.2133C46.9431 32.7176 47.5152 33.6194 47.5152 34.6764C47.5152 36.2667 46.2255 37.5467 44.6449 37.5467C43.0837 37.5467 41.8231 36.3055 41.7746 34.7636H22.2158C22.1673 36.3055 20.9067 37.5467 19.3455 37.5467C17.7552 37.5467 16.4752 36.257 16.4752 34.6764C16.4752 33.6291 17.0376 32.7176 17.8812 32.2133C17.0473 31.7091 16.4752 30.8073 16.4752 29.7503C16.4752 28.16 17.7649 26.88 19.3455 26.88C20.9067 26.88 22.1673 28.1212 22.2158 29.663H41.7843C41.8328 28.1212 43.0934 26.88 44.6449 26.88Z" fill="#FF7300"/>
</svg>
