<svg width="64" height="64" viewBox="0 0 64 64" fill="none" xmlns="http://www.w3.org/2000/svg">
<path d="M51.5587 20.1115V22.0897H55.0108V19.5297C55.0108 17.4255 53.3041 15.7091 51.1902 15.7091H41.8811V19.1612H50.6084C51.132 19.1515 51.5587 19.5782 51.5587 20.1115Z" fill="#FF7300"/>
<path d="M22.4582 12.7127H38.5357C39.7479 12.7127 40.7369 11.7236 40.7369 10.5115V9.27029V2.89938C40.7369 2.36605 40.3006 1.92969 39.7672 1.92969C39.2339 1.92969 38.7975 2.36605 38.7975 2.89938V9.2606H37.6436V2.89938C37.6436 2.36605 37.2072 1.92969 36.6739 1.92969C36.1406 1.92969 35.7042 2.36605 35.7042 2.89938V9.2606H34.5503V2.89938C34.5503 2.36605 34.1139 1.92969 33.5806 1.92969C33.0472 1.92969 32.6109 2.36605 32.6109 2.89938V9.2606H31.4569V2.89938C31.4569 2.36605 31.0206 1.92969 30.4872 1.92969C29.9539 1.92969 29.5175 2.36605 29.5175 2.89938V9.2606H28.3636V2.89938C28.3636 2.36605 27.9272 1.92969 27.3939 1.92969C26.8606 1.92969 26.4242 2.36605 26.4242 2.89938V9.2606H25.2703V2.89938C25.2703 2.36605 24.8339 1.92969 24.3006 1.92969C23.7672 1.92969 23.3309 2.36605 23.3309 2.89938V9.2606H22.1769V2.89938C22.1769 2.36605 21.7406 1.92969 21.2072 1.92969C20.6739 1.92969 20.2375 2.36605 20.2375 2.89938V9.2606V10.5115C20.2569 11.7333 21.2363 12.7127 22.4582 12.7127Z" fill="#FF7300"/>
<path d="M60.1503 56.4072H47.6315C46.5745 56.4072 45.7212 57.2606 45.7212 58.3175V60.1697C45.7212 61.2266 46.5745 62.08 47.6315 62.08H60.1503C61.2073 62.08 62.0606 61.2266 62.0606 60.1697V58.3175C62.0606 57.2606 61.2073 56.4072 60.1503 56.4072Z" fill="#FF7300"/>
<path d="M19.7235 49.9781C19.6072 52.7515 19.1611 56.0194 17.8035 57.8133C17.8035 57.8133 13.8763 59.0933 14.1575 62.0703H17.8035C17.8035 62.0703 20.1696 59.8981 21.9344 56.126C21.7308 54.4388 21.1781 52.16 19.7235 49.9781Z" fill="#FF7300"/>
<path d="M19.1612 27.5394C18.88 28.1891 18.5212 28.7709 18.0848 29.246C17.3382 30.0315 16.4267 30.4678 15.5151 30.4678C15.36 30.4678 15.1951 30.4581 15.04 30.4291C12.9454 30.08 11.6751 27.5588 12.16 24.6885C12.3442 23.583 12.7709 22.5745 13.3818 21.7697C13.7115 21.343 14.3127 21.2654 14.7394 21.5951C15.1661 21.9248 15.2436 22.526 14.9139 22.9527C14.497 23.4957 14.1964 24.223 14.0606 25.0085C13.7406 26.8994 14.4873 28.3733 15.3503 28.5188C15.9224 28.6157 16.4073 28.1891 16.6594 27.9175C17.183 27.3648 17.5612 26.5309 17.7164 25.6194C17.823 24.96 17.8133 24.3006 17.6776 23.7188C17.6679 23.6703 17.6776 23.6218 17.6679 23.5733C16.5139 20.4606 14.8945 20.0436 14.8945 20.0436C10.5115 18.0751 6.31272 22.4 6.31272 22.4H1.92969V23.486C1.92969 26.4727 4.35393 28.8872 7.3309 28.8872C14.0703 30.2836 15.2824 37.4109 15.2824 37.4109C15.5345 43.0739 20.1115 47.3309 20.1115 47.3309C24.6885 52.48 23.9224 58.8994 23.9224 58.8994C21.76 59.1515 21.5661 62.08 21.5661 62.08H25.8909C27.4812 58.6472 27.5394 47.263 27.5394 47.263C28.9357 47.2824 30.9236 46.9915 32.96 46.5842V35.6945C32.96 34.8606 33.0957 34.0557 33.3479 33.3091C24.2812 33.0569 20.6061 29.7309 19.1612 27.5394ZM9.5806 24.2521C9.05696 24.2521 8.63999 23.8254 8.63999 23.3115C8.63999 22.7975 9.06666 22.3709 9.5806 22.3709C10.1042 22.3709 10.5212 22.7975 10.5212 23.3115C10.5212 23.8254 10.1042 24.2521 9.5806 24.2521Z" fill="#FF7300"/>
<path d="M32.5237 14.6521H28.4801L27.2486 24.4848C27.0061 26.4436 28.5286 28.1697 30.5067 28.1697C32.4752 28.1697 34.0073 26.4436 33.7649 24.4848L32.5237 14.6521Z" fill="#FF7300"/>
<path d="M40.4653 28.0339C40.5235 28.0339 40.5817 28.0242 40.6496 28.0242H51.229C51.2872 28.0242 51.3453 28.0339 51.4132 28.0339V27.2678C51.4132 26.2109 50.5599 25.3575 49.5029 25.3575H42.3756C41.3187 25.3575 40.4653 26.2109 40.4653 27.2678V28.0339Z" fill="#FF7300"/>
<path d="M44.2085 21.0909H47.6606V23.4279H44.2085V21.0909Z" fill="#FF7300"/>
<path d="M47.6315 54.4581H56.9503V35.6945C56.9503 32.5333 54.3903 29.9733 51.2291 29.9733H40.6497C37.4885 29.9733 34.9285 32.5333 34.9285 35.6945V58.2496C34.9285 60.3539 36.6351 62.0702 38.7491 62.0702H44.3151C43.9854 61.5078 43.7915 60.8581 43.7915 60.1599V58.3078C43.7818 56.1939 45.5079 54.4581 47.6315 54.4581ZM51.6073 38.8363C52.3151 38.429 53.2266 38.6714 53.6436 39.3793C54.0509 40.0872 53.8085 40.9987 53.1006 41.4157C52.3927 41.823 51.4812 41.5805 51.0642 40.8727C50.657 40.1648 50.8994 39.2533 51.6073 38.8363ZM47.2145 35.5393C47.6218 34.8314 48.5333 34.5793 49.2509 34.9963C49.9588 35.4036 50.2109 36.3151 49.7939 37.0327C49.3866 37.7405 48.4751 37.9927 47.7576 37.5757C47.0497 37.1587 46.8073 36.2472 47.2145 35.5393ZM42.6182 34.9963C43.326 34.589 44.2376 34.8314 44.6545 35.5393C45.0618 36.2472 44.8194 37.1587 44.1115 37.5757C43.4036 37.983 42.4921 37.7405 42.0751 37.0327C41.6679 36.3151 41.9103 35.4036 42.6182 34.9963ZM38.2254 39.389C38.6327 38.6811 39.5442 38.429 40.2618 38.846C40.9794 39.263 41.2218 40.1648 40.8048 40.8824C40.3976 41.5902 39.486 41.8424 38.7685 41.4254C38.0606 41.0084 37.8182 40.0969 38.2254 39.389ZM42.5794 51.4521C41.0182 51.2484 39.7479 49.9781 39.5442 48.4169C39.3503 46.9042 40.1066 45.5369 41.3091 44.8581C41.9879 44.4702 42.4339 43.7721 42.3951 42.9963C42.3951 42.9478 42.3951 42.8896 42.3951 42.8314C42.3951 40.6399 44.383 38.9139 46.6618 39.3502C48.0097 39.6121 49.1054 40.6884 49.406 42.0266C49.4836 42.366 49.5127 42.6957 49.4933 43.0157C49.4545 43.7914 49.9103 44.4702 50.5794 44.8484C51.7721 45.5272 52.5382 46.8945 52.3442 48.4072C52.1406 49.9684 50.8703 51.2387 49.3091 51.4424C48.446 51.5587 47.6315 51.3551 46.9721 50.9478C46.3515 50.5696 45.5466 50.5696 44.9357 50.9478C44.257 51.3648 43.4424 51.5684 42.5794 51.4521Z" fill="#FF7300"/>
</svg>
