<svg width="61" height="60" viewBox="0 0 61 60" fill="none" xmlns="http://www.w3.org/2000/svg">
<path d="M30.0606 0L0 24.2812V33.1927L30.0606 8.91152L60.1212 33.1927V24.2812L30.0606 0Z" fill="#FF7300"/>
<path d="M27.0547 40.417C27.0547 40.417 25.8135 40.737 24.9213 43.1419C24.9213 43.1904 24.931 43.2388 24.9213 43.2873C24.8147 43.714 24.805 44.1794 24.8922 44.6643C25.1056 45.9443 25.9007 46.7879 26.4438 46.7007C26.9965 46.6037 27.4619 45.5467 27.2486 44.2667C27.1516 43.7043 26.9383 43.1807 26.6377 42.7928C26.3177 42.3661 26.3953 41.7552 26.8219 41.4255C27.2389 41.1055 27.8498 41.1831 28.1795 41.6097C28.6741 42.2497 29.0134 43.0643 29.1589 43.9467C29.5468 46.274 28.4995 48.3201 26.7638 48.611C26.628 48.6304 26.4922 48.6497 26.3565 48.6497C25.2122 48.6497 24.1456 47.8352 23.5056 46.5843C23.0498 47.1758 22.3904 47.8352 21.4304 48.4461V59.9079H24.3104C25.3383 58.5407 26.6474 56.3394 26.7638 53.7407C26.7638 53.7407 27.685 48.2716 32.8631 47.1952C34.0074 47.1952 35.045 46.7297 35.7916 45.9831C36.548 45.2364 37.0134 44.1988 37.0134 43.0546V42.2207L33.6389 42.2304C33.6389 42.2304 30.4195 38.9043 27.0547 40.417ZM31.1468 43.6461C30.7492 43.6461 30.4195 43.3261 30.4195 42.9188C30.4195 42.5213 30.7492 42.2013 31.1468 42.2013C31.5444 42.2013 31.8741 42.5213 31.8741 42.9188C31.8741 43.3261 31.5444 43.6461 31.1468 43.6461Z" fill="#FF7300"/>
<path d="M6.16724 55.2921H19.4909V59.8982H6.16724V55.2921Z" fill="#FF7300"/>
<path d="M40.6304 55.2921H53.954V59.8982H40.6304V55.2921Z" fill="#FF7300"/>
<path d="M6.16724 30.7007V53.4401H19.4909V46.1285C19.4909 40.291 24.223 35.5588 30.0606 35.5588C35.8981 35.5588 40.6303 40.291 40.6303 46.1285V53.4401H53.9539V30.7007L30.0606 11.4037L6.16724 30.7007ZM42.7054 24.834C44.2957 24.834 45.5757 26.1237 45.5757 27.7043C45.5757 28.7516 45.0133 29.6631 44.1697 30.1673C45.0036 30.6716 45.5757 31.5734 45.5757 32.6304C45.5757 34.2207 44.286 35.5007 42.7054 35.5007C41.1442 35.5007 39.8836 34.2594 39.8351 32.7176H20.2763C20.2278 34.2594 18.9672 35.5007 17.406 35.5007C15.8157 35.5007 14.5357 34.211 14.5357 32.6304C14.5357 31.5831 15.0981 30.6716 15.9418 30.1673C15.1078 29.6631 14.5357 28.7613 14.5357 27.7043C14.5357 26.114 15.8254 24.834 17.406 24.834C18.9672 24.834 20.2278 26.0752 20.2763 27.617H39.8448C39.8933 26.0752 41.1539 24.834 42.7054 24.834Z" fill="#FF7300"/>
</svg>
