<svg width="55" height="62" viewBox="0 0 55 62" fill="none" xmlns="http://www.w3.org/2000/svg">
<path fill-rule="evenodd" clip-rule="evenodd" d="M21.3372 0C27.7117 0 32.8793 5.16762 32.8793 11.5421C32.8793 17.9166 27.7117 23.0842 21.3372 23.0842C14.9627 23.0842 9.79507 17.9167 9.79507 11.5421C9.79507 5.16762 14.9627 0 21.3372 0ZM38.5661 31.6906L40.2467 35.6884L44.5682 36.0514C44.6994 36.0624 44.7526 36.2257 44.6529 36.3119L41.3701 39.1456L42.3603 43.3677C42.3903 43.496 42.2513 43.597 42.1387 43.5288L38.4292 41.2822L34.7197 43.5288C34.6071 43.597 34.4681 43.496 34.4981 43.3677L35.4883 39.1456L32.2054 36.3119C32.1057 36.2257 32.1588 36.0624 32.2901 36.0514L36.6116 35.6884L38.2922 31.6906C38.3429 31.5699 38.5154 31.5699 38.5661 31.6906ZM52.8304 36.7931C54.2147 34.8091 53.1674 31.5858 50.8814 30.7943C49.9197 30.4613 49.2982 29.6061 49.2788 28.5885C49.2326 26.1697 46.4907 24.1776 44.1759 24.881C43.2022 25.1769 42.1968 24.8504 41.5829 24.0386C40.1239 22.109 36.7346 22.1089 35.2754 24.0385C34.6616 24.8503 33.6562 25.1771 32.6824 24.8811C30.3678 24.1776 27.6258 26.1697 27.5794 28.5885C27.5599 29.6061 26.9387 30.4614 25.9769 30.7943C23.6908 31.5856 22.6434 34.809 24.0277 36.793C24.6101 37.6278 24.6102 38.6847 24.0277 39.5195C22.6434 41.5035 23.6907 44.7269 25.9767 45.5184C26.9384 45.8514 27.5599 46.7065 27.5793 47.7241C27.6256 50.1429 30.3674 52.135 32.6821 51.4316C33.6558 51.1356 34.6612 51.4622 35.2751 52.274C36.7342 54.2036 40.1236 54.2037 41.5826 52.274C42.1964 51.4621 43.2018 51.1355 44.1756 51.4315C46.4902 52.135 49.2322 50.1427 49.2784 47.7241C49.2979 46.7065 49.9192 45.8514 50.8811 45.5184C53.1672 44.727 54.2144 41.5037 52.8302 39.5197C52.2481 38.6849 52.2481 37.6278 52.8304 36.7931ZM38.4292 47.6464C33.1881 47.6464 28.9392 43.3976 28.9392 38.1564C28.9392 32.9153 33.1881 28.6664 38.4292 28.6664C43.6704 28.6664 47.9192 32.9151 47.9192 38.1564C47.9192 43.3975 43.6703 47.6464 38.4292 47.6464ZM50.9648 49.4641L54.9394 56.3483C55.1091 56.6419 54.8583 56.9987 54.5246 56.939L48.6668 55.8885L46.6477 61.4866C46.5326 61.8056 46.0982 61.8442 45.9287 61.5506L41.9483 54.6565C42.4103 54.3366 42.8272 53.9446 43.1782 53.4804C43.2859 53.3379 43.4233 53.2931 43.5943 53.3451C46.6111 54.2619 49.9437 52.3318 50.9648 49.4641ZM34.9099 54.6564L30.9296 61.5506C30.7601 61.8444 30.3256 61.8056 30.2106 61.4868L28.1914 55.8886L22.3338 56.9391C22.0001 56.9989 21.7493 56.6421 21.9189 56.3484L25.8934 49.4642C26.9146 52.3319 30.2471 54.2619 33.2638 53.3452C33.4348 53.2933 33.5723 53.3377 33.6801 53.4804C34.0311 53.9445 34.4479 54.3364 34.9099 54.6564ZM22.8768 45.6899H0.875444C0.374694 45.6899 -0.0204314 45.278 0.00081862 44.7776C0.482944 33.4508 9.89707 24.3341 21.3372 24.3341C23.2614 24.3341 25.1278 24.5933 26.9046 25.0763C26.1082 26.046 25.6048 27.2486 25.5798 28.5501C25.5764 28.7292 25.4921 28.8456 25.3227 28.9042C21.7837 30.1294 20.2446 34.8659 22.3874 37.9372C22.4899 38.0842 22.4902 38.2279 22.3876 38.3749C20.8387 40.595 21.2137 43.6848 22.8768 45.6899Z" fill="#FF7300"/>
</svg>
